<svg id="svg" version="1.1" xmlns="http://www.w3.org/2000/svg" xmlns:xlink="http://www.w3.org/1999/xlink" width="400" height="400" viewBox="0, 0, 400,400"><g id="svgg"><path id="path0" d="M175.294 111.294 L 175.200 123.989 162.300 124.100 L 149.400 124.211 162.300 124.306 L 175.200 124.400 175.200 136.600 L 175.200 148.800 187.806 148.800 L 200.412 148.800 200.306 136.500 L 200.200 124.200 187.906 124.094 L 175.611 123.988 175.500 111.294 L 175.388 98.600 175.294 111.294 M275.700 124.162 C 275.577 124.361,275.684 124.395,275.938 124.238 C 276.284 124.025,276.400 127.136,276.400 136.576 L 276.400 149.200 288.794 149.200 L 301.189 149.200 301.294 161.700 L 301.400 174.200 314.100 174.306 L 326.800 174.411 326.800 161.806 L 326.800 149.200 314.000 149.200 L 301.200 149.200 301.200 136.611 L 301.200 124.022 288.562 123.911 C 281.323 123.847,275.828 123.955,275.700 124.162 M155.900 174.699 C 159.475 174.766,165.325 174.766,168.900 174.699 C 172.475 174.633,169.550 174.579,162.400 174.579 C 155.250 174.579,152.325 174.633,155.900 174.699 M74.178 187.200 C 74.178 194.130,74.233 196.965,74.299 193.500 C 74.366 190.035,74.366 184.365,74.299 180.900 C 74.233 177.435,74.178 180.270,74.178 187.200 M124.578 187.200 C 124.578 194.130,124.633 196.965,124.699 193.500 C 124.766 190.035,124.766 184.365,124.699 180.900 C 124.633 177.435,124.578 180.270,124.578 187.200 M301.600 212.000 L 301.600 224.400 314.200 224.400 L 326.800 224.400 326.800 212.000 L 326.800 199.600 314.200 199.600 L 301.600 199.600 301.600 212.000 M48.800 212.600 L 48.800 225.200 61.400 225.200 L 74.000 225.200 74.000 212.600 L 74.000 200.000 61.400 200.000 L 48.800 200.000 48.800 212.600 M200.400 212.400 L 200.400 224.800 213.000 224.800 L 225.600 224.800 225.600 237.500 L 225.600 250.200 238.200 250.089 L 250.800 249.978 250.800 237.389 L 250.800 224.800 238.200 224.800 L 225.600 224.800 225.600 212.400 L 225.600 200.000 213.000 200.000 L 200.400 200.000 200.400 212.400 M351.778 212.400 C 351.778 219.330,351.833 222.165,351.899 218.700 C 351.966 215.235,351.966 209.565,351.899 206.100 C 351.833 202.635,351.778 205.470,351.778 212.400 M98.897 250.506 L 98.800 276.012 86.500 275.906 L 74.200 275.800 74.094 263.100 L 73.989 250.400 61.394 250.400 L 48.800 250.400 48.800 262.994 L 48.800 275.589 61.500 275.694 L 74.200 275.800 74.306 288.300 L 74.411 300.800 86.806 300.800 L 99.200 300.800 99.200 313.400 L 99.200 326.000 111.800 326.000 L 124.400 326.000 124.400 313.400 L 124.400 300.800 111.800 300.800 L 99.200 300.800 99.200 288.400 L 99.200 276.000 111.757 276.000 C 122.839 276.000,124.343 275.926,124.557 275.367 C 124.691 275.019,124.759 269.214,124.709 262.467 L 124.617 250.200 124.409 262.800 L 124.200 275.400 111.703 275.506 L 99.206 275.611 99.100 250.306 L 98.994 225.000 98.897 250.506 M149.601 262.694 L 149.600 275.189 162.300 275.294 L 175.000 275.400 175.106 288.094 L 175.211 300.789 187.706 300.894 L 200.200 301.000 200.200 313.400 L 200.200 325.800 187.950 325.906 L 175.699 326.011 175.401 351.024 C 175.238 364.781,175.215 376.149,175.352 376.285 C 175.488 376.422,175.600 370.923,175.600 364.067 L 175.600 351.600 187.794 351.600 L 199.989 351.600 200.094 338.700 L 200.200 325.800 213.106 325.800 L 226.011 325.800 225.906 313.400 L 225.800 301.000 213.100 300.894 L 200.400 300.789 200.400 288.194 L 200.400 275.600 187.800 275.600 L 175.200 275.600 175.200 263.006 L 175.200 250.411 187.700 250.280 C 194.575 250.207,188.816 250.160,174.901 250.174 L 149.603 250.200 149.601 262.694 M251.200 262.800 L 251.200 275.200 263.800 275.200 L 276.400 275.200 276.400 288.000 L 276.400 300.800 288.800 300.800 L 301.200 300.800 301.200 288.000 L 301.200 275.200 288.800 275.200 L 276.400 275.200 276.400 262.800 L 276.400 250.400 263.800 250.400 L 251.200 250.400 251.200 262.800 M250.800 313.400 L 250.800 325.600 263.600 325.600 L 276.400 325.600 276.400 313.400 L 276.400 301.200 263.600 301.200 L 250.800 301.200 250.800 313.400 M156.325 325.899 C 159.914 325.966,165.674 325.966,169.125 325.899 C 172.576 325.833,169.640 325.778,162.600 325.778 C 155.560 325.779,152.736 325.833,156.325 325.899 M276.400 338.800 L 276.400 351.600 288.800 351.600 L 301.200 351.600 301.200 338.800 L 301.200 326.000 288.800 326.000 L 276.400 326.000 276.400 338.800 M99.200 364.000 L 99.200 376.400 111.800 376.400 L 124.400 376.400 124.400 364.000 L 124.400 351.600 111.800 351.600 L 99.200 351.600 99.200 364.000 " stroke="none" fill="#6c6c6c" fill-rule="evenodd"></path><path id="path1" d="M200.400 111.394 L 200.400 123.989 213.100 124.094 L 225.800 124.200 225.906 136.700 L 226.011 149.200 187.806 149.200 L 149.600 149.200 149.600 136.800 L 149.600 124.400 137.200 124.400 L 124.800 124.400 124.800 136.800 L 124.800 149.200 112.000 149.200 L 99.200 149.200 99.200 162.000 L 99.200 174.800 86.848 174.800 L 74.496 174.800 74.221 200.100 C 74.069 214.015,74.003 230.980,74.073 237.800 L 74.200 250.200 86.500 250.306 L 98.800 250.412 98.800 225.006 L 98.800 199.600 111.594 199.600 L 124.389 199.600 124.494 187.100 L 124.600 174.600 150.000 174.600 L 175.400 174.600 175.236 212.300 L 175.072 250.000 187.487 250.000 L 199.902 250.000 200.200 224.800 L 200.498 199.600 213.049 199.600 L 225.600 199.600 225.600 186.800 L 225.600 174.000 251.000 174.000 L 276.400 174.000 276.400 161.600 L 276.400 149.200 263.600 149.200 L 250.800 149.200 250.800 124.000 L 250.800 98.800 225.600 98.800 L 200.400 98.800 200.400 111.394 M276.400 187.000 L 276.400 199.600 288.800 199.600 L 301.200 199.600 301.200 187.000 L 301.200 174.400 288.800 174.400 L 276.400 174.400 276.400 187.000 M301.600 262.800 L 301.600 300.800 314.200 300.800 L 326.800 300.800 326.800 288.000 L 326.800 275.200 339.465 275.200 L 352.131 275.200 351.865 256.534 C 351.719 246.268,351.600 234.928,351.600 231.334 L 351.600 224.800 326.600 224.800 L 301.600 224.800 301.600 262.800 M226.000 275.600 L 226.000 300.800 251.200 300.800 L 276.400 300.800 276.400 288.000 L 276.400 275.200 263.600 275.200 L 250.800 275.200 250.800 262.800 L 250.800 250.400 238.400 250.400 L 226.000 250.400 226.000 275.600 M124.800 326.000 L 124.800 376.400 137.200 376.400 L 149.600 376.400 149.600 351.000 L 149.600 325.600 162.406 325.600 L 175.212 325.600 175.106 313.300 L 175.000 301.000 162.300 300.894 L 149.600 300.789 149.600 288.194 L 149.600 275.600 137.200 275.600 L 124.800 275.600 124.800 326.000 M226.000 351.200 L 226.000 376.400 238.400 376.400 L 250.800 376.400 250.800 351.200 L 250.800 326.000 238.400 326.000 L 226.000 326.000 226.000 351.200 " stroke="none" fill="#a2a2a2" fill-rule="evenodd"></path><path id="path2" d="M124.800 111.600 L 124.800 124.400 137.200 124.400 L 149.600 124.400 149.600 136.800 L 149.600 149.200 187.806 149.200 L 226.011 149.200 225.906 136.700 L 225.800 124.200 213.100 124.094 L 200.400 123.989 200.400 111.394 L 200.400 98.800 188.000 98.800 L 175.600 98.800 175.600 111.394 L 175.600 123.988 187.900 124.094 L 200.200 124.200 200.306 136.500 L 200.412 148.800 187.806 148.800 L 175.200 148.800 175.200 136.600 L 175.200 124.400 162.400 124.400 L 149.600 124.400 149.600 111.600 L 149.600 98.800 137.200 98.800 L 124.800 98.800 124.800 111.600 M263.500 124.306 L 250.800 124.411 250.800 136.806 L 250.800 149.200 263.600 149.200 L 276.400 149.200 276.400 161.800 L 276.400 174.400 288.800 174.400 L 301.200 174.400 301.200 187.000 L 301.200 199.600 314.000 199.600 L 326.800 199.600 326.800 187.006 L 326.800 174.411 314.100 174.306 L 301.400 174.200 301.294 161.700 L 301.189 149.200 288.800 149.200 L 276.411 149.200 276.306 136.700 L 276.200 124.200 263.500 124.306 M130.900 174.699 C 134.365 174.766,140.035 174.766,143.500 174.699 C 146.965 174.633,144.130 174.578,137.200 174.578 C 130.270 174.578,127.435 174.633,130.900 174.699 M175.378 187.400 C 175.379 194.440,175.433 197.264,175.499 193.675 C 175.566 190.086,175.566 184.326,175.499 180.875 C 175.433 177.424,175.378 180.360,175.378 187.400 M98.979 212.400 C 98.979 219.550,99.033 222.475,99.099 218.900 C 99.166 215.325,99.166 209.475,99.099 205.900 C 99.033 202.325,98.979 205.250,98.979 212.400 M206.725 199.899 C 210.314 199.966,216.074 199.966,219.525 199.899 C 222.976 199.833,220.040 199.778,213.000 199.778 C 205.960 199.779,203.136 199.833,206.725 199.899 M326.800 212.194 L 326.800 224.389 314.100 224.500 C 307.115 224.561,312.695 224.654,326.500 224.706 L 351.600 224.800 351.600 237.667 C 351.600 244.743,351.712 250.421,351.850 250.284 C 351.987 250.146,351.966 238.776,351.802 225.017 L 351.504 200.000 339.152 200.000 L 326.800 200.000 326.800 212.194 M174.800 225.200 C 174.800 225.458,170.400 225.600,162.400 225.600 L 150.000 225.600 150.000 238.000 L 150.000 250.400 162.600 250.400 L 175.200 250.400 175.200 237.600 C 175.200 230.560,175.110 224.800,175.000 224.800 C 174.890 224.800,174.800 224.980,174.800 225.200 M200.000 237.400 L 200.000 250.000 212.800 250.000 L 225.600 250.000 225.600 237.400 L 225.600 224.800 212.800 224.800 L 200.000 224.800 200.000 237.400 M48.800 237.800 L 48.800 250.400 61.394 250.400 L 73.989 250.400 74.094 263.100 L 74.200 275.800 86.500 275.906 L 98.800 276.012 98.800 263.212 L 98.800 250.412 86.500 250.306 L 74.200 250.200 74.094 237.700 L 73.989 225.200 61.394 225.200 L 48.800 225.200 48.800 237.800 M238.394 250.297 L 250.789 250.411 250.903 262.806 L 251.017 275.200 251.009 262.700 L 251.000 250.200 238.500 250.191 L 226.000 250.183 238.394 250.297 M124.800 262.567 C 124.800 269.259,124.691 275.019,124.557 275.367 C 124.343 275.926,122.839 276.000,111.757 276.000 L 99.200 276.000 99.200 288.400 L 99.200 300.800 111.800 300.800 L 124.400 300.800 124.400 313.400 L 124.400 326.000 111.800 326.000 L 99.200 326.000 99.200 338.800 L 99.200 351.600 111.794 351.600 L 124.389 351.600 124.500 364.100 C 124.562 370.975,124.654 353.875,124.706 326.100 L 124.800 275.600 137.200 275.600 L 149.600 275.600 149.600 288.194 L 149.600 300.789 162.300 300.894 L 175.000 301.000 175.106 313.506 L 175.211 326.011 187.706 325.906 L 200.200 325.800 200.200 313.400 L 200.200 301.000 187.706 300.894 L 175.211 300.789 175.106 288.094 L 175.000 275.400 162.300 275.294 L 149.600 275.189 149.600 262.794 L 149.600 250.400 137.200 250.400 L 124.800 250.400 124.800 262.567 M276.400 262.800 L 276.400 275.200 288.800 275.200 L 301.200 275.200 301.200 288.000 L 301.200 300.800 263.600 300.800 L 226.000 300.800 226.000 288.100 L 226.000 275.400 213.200 275.511 L 200.400 275.622 200.400 288.205 L 200.400 300.789 213.100 300.894 L 225.800 301.000 225.906 313.500 L 226.011 326.000 238.406 326.000 L 250.800 326.000 250.800 313.600 L 250.800 301.200 263.600 301.200 L 276.400 301.200 276.400 313.600 L 276.400 326.000 288.735 326.000 L 301.069 326.000 301.334 307.100 C 301.480 296.705,301.599 279.695,301.600 269.300 L 301.600 250.400 289.000 250.400 L 276.400 250.400 276.400 262.800 M175.600 364.000 L 175.600 376.400 187.800 376.400 L 200.000 376.400 200.000 364.000 L 200.000 351.600 187.800 351.600 L 175.600 351.600 175.600 364.000 M276.400 364.000 L 276.400 376.400 288.800 376.400 L 301.200 376.400 301.200 364.000 L 301.200 351.600 288.800 351.600 L 276.400 351.600 276.400 364.000 " stroke="none" fill="#7c7c7c" fill-rule="evenodd"></path><path id="path3" d="M124.550 98.988 C 124.463 99.215,124.441 110.650,124.499 124.400 L 124.606 149.400 124.703 124.100 L 124.800 98.800 137.200 98.800 L 149.600 98.800 149.600 111.400 L 149.600 124.000 162.400 124.000 L 175.200 124.000 175.200 111.402 L 175.200 98.804 212.900 98.696 C 233.635 98.637,222.274 98.586,187.654 98.582 C 144.832 98.578,124.657 98.708,124.550 98.988 M288.694 123.900 L 301.189 124.011 301.300 136.706 L 301.412 149.400 301.506 136.500 L 301.600 123.600 288.900 123.694 L 276.200 123.788 288.694 123.900 M256.900 124.299 C 260.365 124.366,266.035 124.366,269.500 124.299 C 272.965 124.233,270.130 124.178,263.200 124.178 C 256.270 124.178,253.435 124.233,256.900 124.299 M98.800 161.794 L 98.800 174.388 86.500 174.500 L 74.200 174.612 86.700 174.706 L 99.200 174.800 99.200 162.000 C 99.200 154.960,99.110 149.200,99.000 149.200 C 98.890 149.200,98.800 154.867,98.800 161.794 M326.897 174.500 L 326.800 200.000 339.500 199.906 L 352.200 199.812 339.703 199.700 L 327.206 199.589 327.100 174.294 L 326.994 149.000 326.897 174.500 M225.784 174.500 C 225.679 174.775,225.641 186.250,225.699 200.000 L 225.806 225.000 225.903 199.703 L 226.000 174.406 251.300 174.300 L 276.600 174.194 251.287 174.097 C 231.334 174.021,225.934 174.106,225.784 174.500 M48.400 237.800 L 48.400 276.000 61.194 276.000 L 73.989 276.000 74.103 288.400 L 74.217 300.800 74.209 288.300 L 74.200 275.800 61.500 275.694 L 48.800 275.589 48.800 237.800 L 48.800 200.011 61.500 199.900 L 74.200 199.788 61.300 199.694 L 48.400 199.600 48.400 237.800 M105.500 199.899 C 109.075 199.966,114.925 199.966,118.500 199.899 C 122.075 199.833,119.150 199.779,112.000 199.779 C 104.850 199.779,101.925 199.833,105.500 199.899 M288.697 199.900 L 301.194 200.011 301.300 225.106 L 301.406 250.200 301.503 224.900 L 301.600 199.600 288.900 199.694 L 276.200 199.788 288.697 199.900 M149.694 237.700 L 149.788 250.200 149.900 237.906 L 150.012 225.612 162.306 225.500 L 174.600 225.388 162.100 225.294 L 149.600 225.200 149.694 237.700 M213.000 250.306 L 225.600 250.411 225.600 262.803 L 225.600 275.194 200.300 275.302 L 175.000 275.409 200.400 275.405 L 225.800 275.400 225.800 262.800 L 225.800 250.200 213.100 250.200 L 200.400 250.200 213.000 250.306 M99.200 263.006 L 99.200 275.611 111.700 275.506 L 124.200 275.400 124.306 262.900 L 124.411 250.400 111.806 250.400 L 99.200 250.400 99.200 263.006 M327.067 275.467 C 326.920 275.613,326.800 281.373,326.800 288.267 L 326.800 300.800 314.000 300.800 L 301.200 300.800 301.298 338.700 L 301.396 376.600 301.500 338.906 L 301.604 301.211 314.302 301.106 L 327.000 301.000 327.106 288.306 L 327.211 275.611 339.706 275.500 L 352.200 275.388 339.767 275.294 C 332.928 275.242,327.213 275.320,327.067 275.467 M200.186 326.094 C 200.080 326.372,200.041 337.850,200.099 351.600 L 200.206 376.600 200.303 351.300 L 200.400 326.000 212.997 326.000 L 225.594 326.000 225.697 351.300 L 225.800 376.600 238.300 376.609 L 250.800 376.617 238.403 376.503 L 226.006 376.389 225.903 351.094 L 225.800 325.800 213.090 325.694 C 203.136 325.612,200.337 325.698,200.186 326.094 M257.100 325.899 C 260.675 325.966,266.525 325.966,270.100 325.899 C 273.675 325.833,270.750 325.779,263.600 325.779 C 256.450 325.779,253.525 325.833,257.100 325.899 M149.697 351.094 L 149.600 376.389 136.900 376.500 L 124.200 376.612 136.913 376.706 C 146.784 376.779,149.668 376.688,149.816 376.300 C 149.921 376.025,149.959 364.550,149.901 350.800 L 149.794 325.800 149.697 351.094 M175.378 338.600 C 175.379 345.640,175.433 348.464,175.499 344.875 C 175.566 341.286,175.566 335.526,175.499 332.075 C 175.433 328.624,175.378 331.560,175.378 338.600 " stroke="none" fill="#4c4c4c" fill-rule="evenodd"></path><path id="path4" d="M124.400 85.800 L 124.400 98.400 111.600 98.400 L 98.800 98.400 98.800 111.200 L 98.800 124.000 86.400 124.000 L 74.000 124.000 74.000 136.400 L 74.000 148.800 61.200 148.800 L 48.400 148.800 48.400 161.600 L 48.400 174.400 35.800 174.400 L 23.200 174.400 23.200 225.200 L 23.200 276.000 35.800 276.000 L 48.400 276.000 48.400 288.600 L 48.400 301.200 61.200 301.200 L 74.000 301.200 74.000 339.000 L 74.000 376.800 86.400 376.800 L 98.800 376.800 98.800 388.400 L 98.800 400.000 200.200 400.000 L 301.600 400.000 301.600 388.400 L 301.600 376.800 314.400 376.800 L 327.200 376.800 327.200 339.000 L 327.200 301.200 339.800 301.200 L 352.400 301.200 352.400 288.400 L 352.400 275.600 365.000 275.600 L 377.600 275.600 377.600 224.800 L 377.600 174.000 365.000 174.000 L 352.400 174.000 352.400 148.600 L 352.400 123.200 339.800 123.200 L 327.200 123.200 327.200 110.800 L 327.200 98.400 302.000 98.400 L 276.800 98.400 276.800 85.800 L 276.800 73.200 200.600 73.200 L 124.400 73.200 124.400 85.800 M250.800 111.240 L 250.800 124.096 276.200 123.798 L 301.600 123.501 301.600 136.350 L 301.600 149.200 314.400 149.200 L 327.200 149.200 327.200 174.400 L 327.200 199.600 339.600 199.600 L 352.000 199.600 352.000 237.600 L 352.000 275.600 339.606 275.600 L 327.211 275.600 327.106 288.300 L 327.000 301.000 314.300 301.106 L 301.600 301.211 301.600 338.806 L 301.600 376.400 289.000 376.400 L 276.400 376.400 276.400 351.200 L 276.400 326.000 263.600 326.000 L 250.800 326.000 250.800 351.406 L 250.800 376.811 238.300 376.706 L 225.800 376.600 225.697 351.300 L 225.594 326.000 212.997 326.000 L 200.400 326.000 200.400 351.200 L 200.400 376.400 187.800 376.400 L 175.200 376.400 175.200 351.200 L 175.200 326.000 162.600 326.000 L 150.000 326.000 150.000 351.176 C 150.000 369.011,149.872 376.432,149.561 376.624 C 149.320 376.773,137.891 376.761,124.163 376.598 L 99.204 376.301 99.102 338.650 L 99.000 301.000 86.500 300.894 L 74.000 300.789 74.000 288.394 L 74.000 276.000 61.200 276.000 L 48.400 276.000 48.400 237.800 L 48.400 199.600 61.194 199.600 L 73.989 199.600 74.094 187.100 L 74.200 174.600 86.500 174.494 L 98.800 174.388 98.800 161.794 L 98.800 149.200 111.600 149.200 L 124.400 149.200 124.400 124.067 C 124.400 110.243,124.480 98.853,124.579 98.755 C 124.677 98.656,153.117 98.533,187.779 98.480 L 250.800 98.385 250.800 111.240 M226.000 199.600 L 226.000 224.800 238.394 224.800 L 250.789 224.800 250.894 237.500 L 251.000 250.200 276.100 250.303 L 301.200 250.406 301.200 225.203 L 301.200 200.000 288.800 200.000 L 276.400 200.000 276.400 187.200 L 276.400 174.400 251.200 174.400 L 226.000 174.400 226.000 199.600 M124.800 187.400 L 124.800 200.000 112.000 200.000 L 99.200 200.000 99.200 225.200 L 99.200 250.400 124.400 250.400 L 149.600 250.400 149.600 237.806 L 149.600 225.211 162.300 225.106 L 175.000 225.000 175.103 199.900 L 175.206 174.800 150.003 174.800 L 124.800 174.800 124.800 187.400 M175.200 262.800 L 175.200 275.200 200.400 275.200 L 225.600 275.200 225.600 262.800 L 225.600 250.400 200.400 250.400 L 175.200 250.400 175.200 262.800 " stroke="none" fill="#040404" fill-rule="evenodd"></path></g></svg>